<svg width="15" height="15" viewBox="0 0 15 15" fill="none" xmlns="http://www.w3.org/2000/svg">
<path d="M7.19629 14.0371C8.14876 14.0371 9.04427 13.8548 9.88281 13.4902C10.7259 13.1257 11.4688 12.6221 12.1113 11.9795C12.7539 11.3369 13.2575 10.5964 13.6221 9.75781C13.9867 8.91471 14.1689 8.01693 14.1689 7.06445C14.1689 6.11198 13.9867 5.21647 13.6221 4.37793C13.2575 3.53483 12.7539 2.79199 12.1113 2.14941C11.4688 1.50684 10.7259 1.00326 9.88281 0.638672C9.03971 0.274089 8.14193 0.0917969 7.18945 0.0917969C6.23698 0.0917969 5.33919 0.274089 4.49609 0.638672C3.65755 1.00326 2.91699 1.50684 2.27441 2.14941C1.63639 2.79199 1.13509 3.53483 0.770508 4.37793C0.405924 5.21647 0.223633 6.11198 0.223633 7.06445C0.223633 8.01693 0.405924 8.91471 0.770508 9.75781C1.13509 10.5964 1.63867 11.3369 2.28125 11.9795C2.92383 12.6221 3.66439 13.1257 4.50293 13.4902C5.34603 13.8548 6.24381 14.0371 7.19629 14.0371ZM7.19629 8.33594C6.83171 8.33594 6.64486 8.14909 6.63574 7.77539L6.54688 4.0498C6.54232 3.87207 6.59928 3.72396 6.71777 3.60547C6.84082 3.48698 6.99805 3.42773 7.18945 3.42773C7.3763 3.42773 7.53125 3.48926 7.6543 3.6123C7.7819 3.73079 7.84342 3.87891 7.83887 4.05664L7.73633 7.77539C7.73177 8.14909 7.55176 8.33594 7.19629 8.33594ZM7.19629 10.626C6.99121 10.626 6.8112 10.5553 6.65625 10.4141C6.50586 10.2728 6.43066 10.0996 6.43066 9.89453C6.43066 9.69401 6.50586 9.52083 6.65625 9.375C6.80664 9.22917 6.98665 9.15625 7.19629 9.15625C7.40137 9.15625 7.5791 9.22917 7.72949 9.375C7.88444 9.51628 7.96191 9.68945 7.96191 9.89453C7.96191 10.0996 7.88444 10.2728 7.72949 10.4141C7.5791 10.5553 7.40137 10.626 7.19629 10.626Z" fill="#EF5B44"/>
</svg>
