<svg width="15" height="16" viewBox="0 0 15 16" fill="none" xmlns="http://www.w3.org/2000/svg">
<path d="M7.70801 15.1943C8.68327 15.1943 9.60156 15.0075 10.4629 14.6338C11.3242 14.2646 12.0807 13.752 12.7324 13.0957C13.3887 12.4395 13.9036 11.6829 14.2773 10.8262C14.651 9.96484 14.8379 9.04427 14.8379 8.06445C14.8379 7.08919 14.651 6.17318 14.2773 5.31641C13.9036 4.45508 13.3887 3.69629 12.7324 3.04004C12.0807 2.38379 11.3219 1.87109 10.4561 1.50195C9.59473 1.12826 8.67643 0.941406 7.70117 0.941406C6.72591 0.941406 5.80762 1.12826 4.94629 1.50195C4.08496 1.87109 3.32617 2.38379 2.66992 3.04004C2.01823 3.69629 1.50553 4.45508 1.13184 5.31641C0.762695 6.17318 0.578125 7.08919 0.578125 8.06445C0.578125 9.04427 0.762695 9.96484 1.13184 10.8262C1.50553 11.6829 2.02051 12.4395 2.67676 13.0957C3.33301 13.752 4.0918 14.2646 4.95312 14.6338C5.81445 15.0075 6.73275 15.1943 7.70801 15.1943ZM4.36523 8.07129C4.36523 7.8571 4.43359 7.68164 4.57031 7.54492C4.70703 7.4082 4.88249 7.33984 5.09668 7.33984H6.9834V5.44629C6.9834 5.2321 7.05176 5.05664 7.18848 4.91992C7.3252 4.7832 7.49837 4.71484 7.70801 4.71484C7.91764 4.71484 8.09082 4.7832 8.22754 4.91992C8.36881 5.05664 8.43945 5.2321 8.43945 5.44629V7.33984H10.333C10.5472 7.33984 10.7227 7.4082 10.8594 7.54492C10.9961 7.68164 11.0645 7.8571 11.0645 8.07129C11.0645 8.28092 10.9938 8.4541 10.8525 8.59082C10.7158 8.72298 10.5426 8.78906 10.333 8.78906H8.43945V10.6895C8.43945 10.8991 8.36881 11.0723 8.22754 11.209C8.09082 11.3457 7.91764 11.4141 7.70801 11.4141C7.49837 11.4141 7.3252 11.3457 7.18848 11.209C7.05176 11.0723 6.9834 10.8991 6.9834 10.6895V8.78906H5.09668C4.88249 8.78906 4.70703 8.72298 4.57031 8.59082C4.43359 8.4541 4.36523 8.28092 4.36523 8.07129Z" fill="#E87B35"/>
</svg>
