<svg width="14" height="14" viewBox="0 0 14 14" fill="none" xmlns="http://www.w3.org/2000/svg">
<path d="M6.54883 13.0977C7.44661 13.0977 8.28971 12.9268 9.07812 12.585C9.86654 12.2432 10.5615 11.7715 11.1631 11.1699C11.7692 10.5684 12.2432 9.87337 12.585 9.08496C12.9268 8.29199 13.0977 7.44661 13.0977 6.54883C13.0977 5.6556 12.9245 4.81478 12.5781 4.02637C12.2363 3.2334 11.7624 2.53613 11.1562 1.93457C10.5547 1.32845 9.8597 0.854492 9.07129 0.512695C8.28288 0.170898 7.43978 0 6.54199 0C5.64876 0 4.80794 0.170898 4.01953 0.512695C3.23112 0.854492 2.53385 1.32845 1.92773 1.93457C1.32617 2.53613 0.854492 3.2334 0.512695 4.02637C0.170898 4.81478 0 5.6556 0 6.54883C0 7.44661 0.170898 8.29199 0.512695 9.08496C0.859049 9.87337 1.33301 10.5684 1.93457 11.1699C2.53613 11.7715 3.23112 12.2432 4.01953 12.585C4.80794 12.9268 5.65104 13.0977 6.54883 13.0977ZM3.88965 7.06836C3.71647 7.06836 3.5752 7.02507 3.46582 6.93848C3.361 6.84733 3.30859 6.72201 3.30859 6.5625C3.30859 6.39844 3.361 6.27311 3.46582 6.18652C3.57064 6.09538 3.71191 6.0498 3.88965 6.0498H9.22852C9.40625 6.0498 9.54525 6.09538 9.64551 6.18652C9.74577 6.27311 9.7959 6.39844 9.7959 6.5625C9.7959 6.72201 9.74349 6.84733 9.63867 6.93848C9.53385 7.02507 9.39714 7.06836 9.22852 7.06836H3.88965Z" fill="#E87B35"/>
</svg>
