<svg width="24" height="16" viewBox="0 0 24 16" fill="none" xmlns="http://www.w3.org/2000/svg">
<path d="M12.4951 15.2578C13.2568 15.2578 13.9834 15.1963 14.6748 15.0732C15.3721 14.9561 16.0371 14.792 16.6699 14.5811L15.0176 12.9199C14.625 13.0312 14.2178 13.1191 13.7959 13.1836C13.3799 13.248 12.9463 13.2803 12.4951 13.2803C11.6455 13.2803 10.834 13.1777 10.0605 12.9727C9.28711 12.7617 8.56348 12.4893 7.88965 12.1553C7.22168 11.8213 6.61523 11.4551 6.07031 11.0566C5.52539 10.6523 5.05664 10.251 4.66406 9.85254C4.27734 9.4541 3.97852 9.08789 3.76758 8.75391C3.5625 8.41992 3.45996 8.15625 3.45996 7.96289C3.45996 7.78711 3.5918 7.51172 3.85547 7.13672C4.125 6.75586 4.50293 6.33398 4.98926 5.87109C5.48145 5.40234 6.06738 4.95117 6.74707 4.51758L5.2002 2.96191C4.30957 3.54785 3.55078 4.16602 2.92383 4.81641C2.30273 5.46094 1.8252 6.06738 1.49121 6.63574C1.15723 7.19824 0.990234 7.64062 0.990234 7.96289C0.990234 8.25 1.11328 8.62793 1.35938 9.09668C1.61133 9.55957 1.97461 10.0664 2.44922 10.6172C2.92383 11.1621 3.49805 11.707 4.17188 12.252C4.85156 12.7969 5.61621 13.2979 6.46582 13.7549C7.32129 14.2061 8.25293 14.5693 9.26074 14.8447C10.2744 15.1201 11.3525 15.2578 12.4951 15.2578ZM12.4951 0.685547C11.7686 0.685547 11.0742 0.744141 10.4121 0.861328C9.75 0.972656 9.11426 1.12793 8.50488 1.32715L10.1484 2.9707C10.5234 2.87695 10.9043 2.80371 11.291 2.75098C11.6777 2.69238 12.0791 2.66309 12.4951 2.66309C13.3447 2.66309 14.1562 2.76855 14.9297 2.97949C15.7031 3.19043 16.4268 3.47168 17.1006 3.82324C17.7744 4.16895 18.3809 4.54688 18.9199 4.95703C19.4648 5.36719 19.9307 5.77441 20.3174 6.17871C20.71 6.57715 21.0088 6.9375 21.2139 7.25977C21.4248 7.57617 21.5303 7.81055 21.5303 7.96289C21.5303 8.17383 21.4043 8.46973 21.1523 8.85059C20.9004 9.22559 20.54 9.63867 20.0713 10.0898C19.6084 10.5352 19.0576 10.9658 18.4189 11.3818L19.9395 12.9111C20.8008 12.3369 21.5332 11.7305 22.1367 11.0918C22.7402 10.4473 23.2002 9.84668 23.5166 9.29004C23.8389 8.7334 24 8.29102 24 7.96289C24 7.68164 23.877 7.30957 23.6309 6.84668C23.3906 6.37793 23.0361 5.87109 22.5674 5.32617C22.0986 4.77539 21.5273 4.22754 20.8535 3.68262C20.1855 3.1377 19.4238 2.63965 18.5684 2.18848C17.7129 1.7373 16.7754 1.37402 15.7559 1.09863C14.7422 0.823242 13.6553 0.685547 12.4951 0.685547ZM12.4951 12.208C12.7646 12.208 13.0195 12.1816 13.2598 12.1289C13.5059 12.0762 13.7402 12 13.9629 11.9004L8.55762 6.49512C8.45801 6.71777 8.38184 6.95215 8.3291 7.19824C8.27637 7.44434 8.25 7.70215 8.25 7.97168C8.25 8.73926 8.44043 9.44531 8.82129 10.0898C9.20215 10.7285 9.71191 11.2412 10.3506 11.6279C10.9951 12.0146 11.71 12.208 12.4951 12.208ZM16.4854 9.28125C16.5674 9.07617 16.6318 8.86523 16.6787 8.64844C16.7256 8.42578 16.749 8.19727 16.749 7.96289C16.749 7.17773 16.5586 6.46582 16.1777 5.82715C15.7969 5.18262 15.2842 4.67285 14.6396 4.29785C14.001 3.92285 13.2891 3.73535 12.5039 3.73535C12.2637 3.73535 12.0352 3.75586 11.8184 3.79688C11.6016 3.83789 11.3906 3.89648 11.1855 3.97266L16.4854 9.28125ZM19.166 15.4951C19.3008 15.624 19.4619 15.6885 19.6494 15.6885C19.8428 15.6943 20.0068 15.6299 20.1416 15.4951C20.2764 15.3486 20.3438 15.1816 20.3438 14.9941C20.3438 14.8066 20.2764 14.6455 20.1416 14.5107L5.81543 0.202148C5.68066 0.0673828 5.5166 0 5.32324 0C5.12988 0 4.96582 0.0673828 4.83105 0.202148C4.70215 0.331055 4.6377 0.495117 4.6377 0.694336C4.6377 0.887695 4.70215 1.04883 4.83105 1.17773L19.166 15.4951Z" fill="#C4C4C4"/>
</svg>
