<svg width="18" height="18" viewBox="0 0 18 18" fill="none" xmlns="http://www.w3.org/2000/svg">
<path d="M9 17.004C9.61569 17.004 10.1922 16.8018 10.7294 16.3974C11.2726 15.999 11.7465 15.4376 12.1509 14.7133C12.5553 13.9889 12.8722 13.1408 13.1016 12.169C13.337 11.1972 13.4547 10.1469 13.4547 9.01811C13.4547 7.88934 13.34 6.83903 13.1107 5.8672C12.8813 4.88934 12.5614 4.03823 12.1509 3.31388C11.7465 2.5835 11.2726 2.0161 10.7294 1.61167C10.1922 1.20724 9.61569 1.00503 9 1.00503C8.38431 1.00503 7.80785 1.20724 7.27062 1.61167C6.7334 2.0161 6.25956 2.5835 5.84909 3.31388C5.44467 4.03823 5.12777 4.88934 4.89839 5.8672C4.66901 6.83903 4.55433 7.88934 4.55433 9.01811C4.55433 10.1469 4.66901 11.1972 4.89839 12.169C5.12777 13.1408 5.44467 13.9889 5.84909 14.7133C6.25956 15.4376 6.7334 15.999 7.27062 16.3974C7.81388 16.8018 8.39034 17.004 9 17.004ZM9 2.22736C9.41046 2.22736 9.7998 2.41147 10.168 2.77968C10.5423 3.14789 10.8773 3.64889 11.173 4.2827C11.4688 4.9165 11.7012 5.64084 11.8702 6.45573C12.0453 7.27062 12.1328 8.12475 12.1328 9.01811C12.1328 9.8994 12.0453 10.7475 11.8702 11.5624C11.7012 12.3712 11.4688 13.0926 11.173 13.7264C10.8773 14.3602 10.5423 14.8612 10.168 15.2294C9.7998 15.6036 9.41046 15.7907 9 15.7907C8.60161 15.7907 8.21227 15.6066 7.83199 15.2384C7.45775 14.8702 7.12274 14.3692 6.82696 13.7354C6.53722 13.1016 6.30483 12.3773 6.12978 11.5624C5.96076 10.7475 5.87626 9.8994 5.87626 9.01811C5.87626 8.12475 5.96076 7.27062 6.12978 6.45573C6.30483 5.64084 6.53722 4.9165 6.82696 4.2827C7.12274 3.64889 7.45775 3.14789 7.83199 2.77968C8.21227 2.41147 8.60161 2.22736 9 2.22736ZM8.35714 1.12274V16.8501H9.65191V1.12274H8.35714ZM9 11.7072C8.09457 11.7072 7.23139 11.7827 6.41046 11.9336C5.59557 12.0785 4.86519 12.2837 4.21932 12.5493C3.57948 12.8149 3.06338 13.1288 2.67103 13.4909L3.65795 14.3149C4.19517 13.9044 4.93159 13.5845 5.8672 13.3551C6.80885 13.1258 7.85312 13.0111 9 13.0111C10.1529 13.0111 11.1972 13.1258 12.1328 13.3551C13.0684 13.5845 13.8048 13.9044 14.3421 14.3149L15.329 13.4909C14.9427 13.1288 14.4266 12.8149 13.7807 12.5493C13.1408 12.2837 12.4105 12.0785 11.5895 11.9336C10.7746 11.7827 9.91147 11.7072 9 11.7072ZM16.7777 8.34809H1.23139V9.65191H16.7777V8.34809ZM9 6.32897C9.91147 6.32897 10.7746 6.25654 11.5895 6.11167C12.4105 5.9668 13.1408 5.76157 13.7807 5.49598C14.4266 5.22435 14.9427 4.90744 15.329 4.54527L14.3421 3.73038C13.8048 4.14084 13.0684 4.46076 12.1328 4.69014C11.1972 4.91348 10.1529 5.02515 9 5.02515C7.85312 5.02515 6.81187 4.91348 5.87626 4.69014C4.94064 4.46076 4.20121 4.14084 3.65795 3.73038L2.67103 4.54527C3.06338 4.90744 3.57948 5.22435 4.21932 5.49598C4.86519 5.76157 5.59557 5.9668 6.41046 6.11167C7.23139 6.25654 8.09457 6.32897 9 6.32897ZM9 18C10.2374 18 11.3994 17.7646 12.4859 17.2938C13.5724 16.829 14.5292 16.1831 15.3561 15.3561C16.1831 14.5292 16.829 13.5724 17.2938 12.4859C17.7646 11.3994 18 10.2374 18 9C18 7.76861 17.7646 6.60966 17.2938 5.52314C16.829 4.43662 16.1801 3.47988 15.3471 2.65292C14.5201 1.82596 13.5634 1.17706 12.4769 0.706237C11.3903 0.235412 10.2284 0 8.99095 0C7.76559 0 6.60966 0.235412 5.52314 0.706237C4.43662 1.17706 3.47686 1.82596 2.64386 2.65292C1.8169 3.47988 1.16801 4.43662 0.697183 5.52314C0.232394 6.60966 0 7.76861 0 9C0 10.2374 0.235412 11.3994 0.706237 12.4859C1.17706 13.5724 1.82596 14.5292 2.65292 15.3561C3.47988 16.1831 4.43662 16.829 5.52314 17.2938C6.60966 17.7646 7.76861 18 9 18ZM9 16.3431C7.99799 16.3431 7.05332 16.1529 6.166 15.7726C5.27867 15.3924 4.49698 14.8642 3.82093 14.1881C3.14487 13.5121 2.61368 12.7304 2.22736 11.8431C1.84708 10.9557 1.65694 10.008 1.65694 9C1.65694 7.99799 1.84708 7.05332 2.22736 6.166C2.61368 5.27867 3.14487 4.49698 3.82093 3.82093C4.49698 3.14487 5.27565 2.6167 6.15694 2.23642C7.04427 1.85614 7.98893 1.666 8.99095 1.666C10.005 1.666 10.9527 1.85614 11.834 2.23642C12.7213 2.6167 13.503 3.14487 14.1791 3.82093C14.8612 4.49698 15.3924 5.27867 15.7726 6.166C16.1529 7.05332 16.3431 7.99799 16.3431 9C16.3431 10.008 16.1529 10.9557 15.7726 11.8431C15.3924 12.7304 14.8612 13.5121 14.1791 14.1881C13.503 14.8642 12.7213 15.3924 11.834 15.7726C10.9527 16.1529 10.008 16.3431 9 16.3431Z" fill="#F97314"/>
</svg>
